# xmcd
#
# Track frame offsets:
#	150
#	23097
#	37735
#	54085
#	72985
#	94542
#	111797
#	131932
#	154425
#	177927
#	197895
#
# Disc length: 3124 seconds
#
# Revision: 0
# Processed by: cddbd v1.5.1PL0 Copyright (c) Steve Scherf et al.
# Submitted via: dBpowerAMP V4.0
#
DISCID=8f0c320b
DTITLE=John Wilson - Daddy Sang The Blues
DYEAR=2002
DGENRE=Blues
TTITLE0=River Of Love
TTITLE1=Rainbows And You
TTITLE2=Jump Back
TTITLE3=We All Wanna Be In Love
TTITLE4=Jump
TTITLE5=Tell Me Something New
TTITLE6=Is This Love
TTITLE7=Everything I Need
TTITLE8=14 Reasons
TTITLE9=Little Mis-treater
TTITLE10=Daddy Sang The Blues
EXTD=5030360001824
EXTT0=
EXTT1=
EXTT2=
EXTT3=
EXTT4=
EXTT5=
EXTT6=
EXTT7=
EXTT8=
EXTT9=
EXTT10=
PLAYORDER=
